<?xml version="1.0" encoding="utf-8"?>
<!-- Generator: Adobe Illustrator 24.0.1, SVG Export Plug-In . SVG Version: 6.00 Build 0)  -->
<svg version="1.1" id="Layer_1" xmlns="http://www.w3.org/2000/svg" xmlns:xlink="http://www.w3.org/1999/xlink" x="0px" y="0px"
	 viewBox="0 0 20 20" style="enable-background:new 0 0 20 20;" xml:space="preserve">
<style type="text/css">
	.st0{fill:none;}
	.st1{fill:none;stroke:#888888;stroke-width:2;stroke-linecap:round;stroke-linejoin:round;}
</style>
<path class="st0" d="M19,13v4c0,0.5-0.2,1-0.6,1.4C18,18.8,17.5,19,17,19H3c-0.5,0-1-0.2-1.4-0.6C1.2,18,1,17.5,1,17v-4"/>
<path class="st1" d="M19,13v4c0,0.5-0.2,1-0.6,1.4C18,18.8,17.5,19,17,19H3c-0.5,0-1-0.2-1.4-0.6C1.2,18,1,17.5,1,17v-4"/>
<path class="st0" d="M5,8l5,5l5-5"/>
<path class="st1" d="M5,8l5,5l5-5"/>
<path class="st1" d="M10,13V1"/>
</svg>
