<svg width="40" height="40" viewBox="0 0 40 40" fill="none" xmlns="http://www.w3.org/2000/svg">
<path fill-rule="evenodd" clip-rule="evenodd" d="M19.3998 0.636301C19.6417 1.06553 19.6089 1.59682 19.316 1.99303C17.4133 4.56713 16.4978 7.73864 16.7358 10.9307C16.9738 14.1228 18.3497 17.1235 20.6131 19.3869C22.8765 21.6503 25.8772 23.0262 29.0693 23.2642C32.2614 23.5023 35.4329 22.5867 38.007 20.684C38.4032 20.3911 38.9345 20.3583 39.3637 20.6002C39.7929 20.8421 40.04 21.3136 39.9947 21.8042C39.6444 25.5944 38.222 29.2065 35.8937 32.2178C33.5655 35.2291 30.4279 37.515 26.8479 38.8081C23.2679 40.1012 19.3937 40.348 15.6785 39.5197C11.9634 38.6913 8.56105 36.822 5.86954 34.1305C3.17804 31.439 1.30872 28.0366 0.48034 24.3215C-0.348046 20.6063 -0.101243 16.7321 1.19187 13.1521C2.48498 9.57215 4.77092 6.43448 7.78221 4.10626C10.7935 1.77805 14.4056 0.355589 18.1958 0.00532464C18.6864 -0.0400141 19.1579 0.207073 19.3998 0.636301ZM15.8283 2.93341C13.4699 3.51678 11.2486 4.58628 9.31136 6.08406C6.67574 8.12183 4.67498 10.8681 3.54318 14.0014C2.41139 17.1348 2.19537 20.5257 2.92042 23.7774C3.64546 27.029 5.28157 30.007 7.63731 32.3627C9.99304 34.7184 12.971 36.3545 16.2226 37.0796C19.4743 37.8046 22.8652 37.5886 25.9986 36.4568C29.1319 35.325 31.8782 33.3243 33.9159 30.6886C35.4137 28.7514 36.4832 26.5302 37.0666 24.1717C34.5442 25.4127 31.7206 25.9689 28.8834 25.7573C25.0941 25.4747 21.5322 23.8415 18.8453 21.1547C16.1585 18.4678 14.5253 14.9059 14.2427 11.1167C14.0311 8.27939 14.5873 5.45582 15.8283 2.93341Z" fill="#AFAFAF"/>
</svg>
