<svg width="40" height="40" viewBox="0 0 40 40" fill="none" xmlns="http://www.w3.org/2000/svg">
<path fill-rule="evenodd" clip-rule="evenodd" d="M19.9999 13.6C16.4653 13.6 13.5999 16.4654 13.5999 20C13.5999 23.5346 16.4653 26.4 19.9999 26.4C23.5345 26.4 26.3999 23.5346 26.3999 20C26.3999 16.4654 23.5345 13.6 19.9999 13.6ZM10.3999 20C10.3999 14.6981 14.698 10.4 19.9999 10.4C25.3018 10.4 29.5999 14.6981 29.5999 20C29.5999 25.3019 25.3018 29.6 19.9999 29.6C14.698 29.6 10.3999 25.3019 10.3999 20Z" fill="#888888"/>
<path fill-rule="evenodd" clip-rule="evenodd" d="M19.9999 0C20.8836 0 21.5999 0.805887 21.5999 1.8V5.4C21.5999 6.39411 20.8836 7.2 19.9999 7.2C19.1162 7.2 18.3999 6.39411 18.3999 5.4V1.8C18.3999 0.805887 19.1162 0 19.9999 0Z" fill="#888888"/>
<path fill-rule="evenodd" clip-rule="evenodd" d="M19.9999 32.8C20.8836 32.8 21.5999 33.6059 21.5999 34.6V38.2C21.5999 39.1941 20.8836 40 19.9999 40C19.1162 40 18.3999 39.1941 18.3999 38.2V34.6C18.3999 33.6059 19.1162 32.8 19.9999 32.8Z" fill="#888888"/>
<path fill-rule="evenodd" clip-rule="evenodd" d="M6.07969 6.07959C6.71914 5.44013 7.75591 5.44013 8.39536 6.07959L10.7205 8.40474C11.36 9.04419 11.36 10.081 10.7205 10.7204C10.0811 11.3599 9.04429 11.3599 8.40484 10.7204L6.07969 8.39526C5.44023 7.75581 5.44023 6.71904 6.07969 6.07959Z" fill="#888888"/>
<path fill-rule="evenodd" clip-rule="evenodd" d="M29.2794 29.2796C29.9189 28.6401 30.9556 28.6401 31.5951 29.2796L33.9202 31.6047C34.5597 32.2442 34.5597 33.281 33.9202 33.9204C33.2808 34.5599 32.244 34.5599 31.6045 33.9204L29.2794 31.5953C28.6399 30.9558 28.6399 29.919 29.2794 29.2796Z" fill="#888888"/>
<path fill-rule="evenodd" clip-rule="evenodd" d="M0 20C0 19.1163 0.805887 18.4 1.8 18.4H5.4C6.39411 18.4 7.2 19.1163 7.2 20C7.2 20.8837 6.39411 21.6 5.4 21.6H1.8C0.805887 21.6 0 20.8837 0 20Z" fill="#888888"/>
<path fill-rule="evenodd" clip-rule="evenodd" d="M32.7998 20C32.7998 19.1163 33.6057 18.4 34.5998 18.4H38.1998C39.1939 18.4 39.9998 19.1163 39.9998 20C39.9998 20.8837 39.1939 21.6 38.1998 21.6H34.5998C33.6057 21.6 32.7998 20.8837 32.7998 20Z" fill="#888888"/>
<path fill-rule="evenodd" clip-rule="evenodd" d="M10.7205 29.2796C11.36 29.919 11.36 30.9558 10.7205 31.5953L8.39536 33.9204C7.75591 34.5599 6.71914 34.5599 6.07969 33.9204C5.44023 33.281 5.44023 32.2442 6.07969 31.6047L8.40484 29.2796C9.04429 28.6401 10.0811 28.6401 10.7205 29.2796Z" fill="#888888"/>
<path fill-rule="evenodd" clip-rule="evenodd" d="M33.9202 6.07959C34.5597 6.71904 34.5597 7.75581 33.9202 8.39526L31.5951 10.7204C30.9556 11.3599 29.9189 11.3599 29.2794 10.7204C28.6399 10.081 28.6399 9.04419 29.2794 8.40474L31.6045 6.07959C32.244 5.44013 33.2808 5.44013 33.9202 6.07959Z" fill="#888888"/>
</svg>
